<svg xmlns="http://www.w3.org/2000/svg" version="1.0" width="80.000000pt" height="80.000000pt" viewBox="0 0 80.000000 80.000000" preserveAspectRatio="xMidYMid meet">

<g transform="translate(0.000000,80.000000) scale(0.100000,-0.100000)" fill="#3f72af" stroke="none">
<path d="M0 400 l0 -400 400 0 400 0 0 400 0 400 -400 0 -400 0 0 -400z m506 349 c25 -6 49 -19 54 -28 4 -9 11 -48 15 -86 l7 -70 -91 9 c-57 6 -125 6 -182 0 l-91 -9 7 70 c4 38 11 77 16 86 18 35 173 51 265 28z m-3 -195 l37 -7 0 -77 c0 -94 -21 -132 -93 -170 l-47 -25 -47 25 c-72 38 -94 78 -91 164 3 64 5 72 28 83 26 13 149 17 213 7z m-261 -31 c-5 -24 -6 -25 -12 -8 -6 16 2 33 16 35 1 0 -1 -12 -4 -27z m331 -3 c-3 -11 -7 -20 -9 -20 -2 0 -4 9 -4 20 0 11 4 20 9 20 5 0 7 -9 4 -20z m-133 -246 l40 16 0 -24 c0 -14 -7 -32 -16 -40 -48 -48 -144 -21 -144 40 l0 24 40 -16 c37 -15 43 -15 80 0z m-117 -61 c23 -23 38 -28 77 -28 40 0 54 5 78 28 34 33 48 31 119 -9 43 -25 85 -84 98 -136 l7 -28 -302 0 -302 0 6 28 c14 58 60 115 115 144 29 15 58 28 64 28 6 0 24 -12 40 -27z"/>
<path d="M380 700 c0 -13 -7 -20 -20 -20 -13 0 -20 -7 -20 -20 0 -13 7 -20 20 -20 13 0 20 -7 20 -20 0 -13 7 -20 20 -20 13 0 20 7 20 20 0 13 7 20 20 20 13 0 20 7 20 20 0 13 -7 20 -20 20 -13 0 -20 7 -20 20 0 13 -7 20 -20 20 -13 0 -20 -7 -20 -20z"/>
</g>
</svg>